simulation
nRows=37
nColumns=15
endheader
time  TH_x TH_y TH_z SC_y  SC_z  SC_x  AC_y  AC_z  AC_x  GH_y  GH_z  GH_yy  EL_x  PS_y
0.249924  0.000000  0.000000  0.000000  -19.263692  -6.540990  -5.538773  51.214611  -9.672227  1.193929  -12.516339  30.792097  17.433491  16.528500  126.563832
0.250229  0.000000  0.000000  0.000000  -35.524255  20.623733  -5.538773  55.295282  14.765628  10.307953  -2.166489  19.903246  3.803659  27.029358  125.276591
0.250534  0.000000  0.000000  0.000000  -33.511086  19.491575  -5.538773  54.235469  -10.563790  4.673619  -10.006924  30.349353  18.065680  32.830977  117.808714
0.250839  0.000000  0.000000  0.000000  -26.217446  13.225529  -5.538773  54.488431  12.480692  0.420195  1.695565  33.153408  6.189623  34.598479  114.742471
0.251144  0.000000  0.000000  0.000000  -25.231435  3.690841  -5.538773  52.574018  2.060250  7.761257  -13.882585  20.160874  8.815896  23.838250  111.763076
0.251449  0.000000  0.000000  0.000000  -26.133442  15.187276  -5.538773  52.148691  7.387321  12.818566  1.309672  22.691159  8.987465  17.884646  120.910867
0.251755  0.000000  0.000000  0.000000  -36.345946  19.177667  -5.538773  49.296789  0.216561  13.459190  -10.666217  27.479482  7.894605  31.076408  117.051692
0.252060  0.000000  0.000000  0.000000  -40.798199  6.023863  -5.538773  55.547188  -0.940531  10.689607  -3.508577  22.143466  9.332561  25.920418  121.223885
0.252365  0.000000  0.000000  0.000000  -26.153160  8.030692  -5.538773  48.825048  -1.288619  -4.914236  -11.282518  18.722677  21.596934  27.615678  113.262339
0.252670  0.000000  0.000000  0.000000  -38.520410  20.034950  -5.538773  51.826270  7.163033  6.332305  -15.071662  34.972627  13.354879  18.390690  126.056485
0.252975  0.000000  0.000000  0.000000  -20.852818  20.423492  -5.538773  48.070317  -6.710094  -1.277304  -16.452765  22.386409  4.718836  27.541855  130.655118
0.253280  0.000000  0.000000  0.000000  -41.387303  10.744236  -5.538773  47.445458  -4.942059  5.552269  -6.000743  18.576533  10.791117  24.634157  113.270871
0.253586  0.000000  0.000000  0.000000  -29.134966  10.533515  -5.538773  46.383041  -8.975392  4.382060  -10.685560  27.081788  14.318927  31.112211  127.863825
0.253891  0.000000  0.000000  0.000000  -34.658542  12.200859  -5.538773  50.845176  -4.182898  11.871961  -11.268622  21.709111  12.197641  32.004693  129.238383
0.254196  0.000000  0.000000  0.000000  -46.755882  18.943633  -5.538773  55.569803  2.025919  4.782467  1.095518  29.105687  9.626711  31.474823  125.819774
0.254501  0.000000  0.000000  0.000000  -25.894125  12.241364  -5.538773  49.543343  -1.257071  -3.163106  1.060244  16.411324  19.750940  31.978760  118.417301
0.254806  0.000000  0.000000  0.000000  -40.856976  6.191746  -5.538773  52.854982  -0.972120  6.952419  -0.462392  26.865369  6.962590  17.072757  125.563534
0.255111  0.000000  0.000000  0.000000  -29.685062  15.883620  -5.538773  47.214859  3.216210  10.442420  -4.871158  33.823712  21.007371  31.970818  120.931360
0.255417  0.000000  0.000000  0.000000  -34.818317  0.853215  0.461227  46.947726  9.682231  0.281616  -7.793737  26.186469  13.749034  25.621307  121.575935
0.255722  0.000000  0.000000  0.000000  -19.227434  12.581517  0.461227  52.420176  -3.882564  -8.087912  -3.434626  23.768081  5.891770  27.091808  113.276510
0.256027  0.000000  0.000000  0.000000  -17.782646  6.919726  0.461227  53.097276  -9.609084  5.906543  -17.345509  22.611754  21.272408  33.422938  124.125059
0.256332  0.000000  0.000000  0.000000  -16.696017  1.087365  0.461227  55.607711  -13.913808  0.176687  -17.774698  29.216443  20.828253  32.810978  121.798406
0.256637  0.000000  0.000000  0.000000  -19.502853  14.676119  0.461227  43.365487  -4.585037  -7.567205  -2.300834  31.687556  23.459751  23.730505  128.407705
0.256942  0.000000  0.000000  0.000000  -54.552727  18.105025  0.461227  55.470795  9.318687  5.562881  -3.658861  20.683111  18.085828  16.330328  126.583095
0.257247  0.000000  0.000000  0.000000  -17.902828  5.214753  0.461227  54.119383  -6.950153  3.946942  -10.695876  20.929994  9.146312  20.327985  125.815036
0.257553  0.000000  0.000000  0.000000  -25.355379  16.939429  0.461227  49.128013  3.412036  3.383089  -3.963603  20.665764  18.587468  17.735589  112.822284
0.257858  0.000000  0.000000  0.000000  -16.513083  13.940248  0.461227  54.473700  16.047069  0.088310  -1.827112  25.910898  21.738659  21.323205  114.844943
0.258163  0.000000  0.000000  0.000000  -50.016838  3.526471  0.461227  56.327432  -11.181177  0.171710  -5.150159  33.548844  4.678612  26.827622  118.973266
0.258468  0.000000  0.000000  0.000000  -19.722101  16.146305  0.461227  48.551125  -6.036029  5.808111  -6.242843  17.462050  11.890745  35.124496  112.686300
0.258773  0.000000  0.000000  0.000000  -19.878120  7.011205  0.461227  55.921618  7.981787  4.773105  -1.136191  16.610059  8.346395  29.815585  113.626568
0.259078  0.000000  0.000000  0.000000  -15.758319  18.345066  0.461227  56.826441  6.667977  8.208552  -15.541851  16.507645  7.923818  24.313202  114.812313
0.259384  0.000000  0.000000  0.000000  -39.919694  17.492347  0.461227  44.052175  -11.934998  -8.806583  -4.276114  34.439851  6.487977  20.523810  121.136377
0.259689  0.000000  0.000000  0.000000  -37.119402  17.077227  0.461227  48.873391  -9.561629  -0.336131  -5.506408  33.403380  3.809603  28.825803  129.499403
0.259994  0.000000  0.000000  0.000000  -16.845226  19.724513  0.461227  51.164312  -4.926604  -2.414762  -1.239526  35.850533  13.431066  19.634094  124.215454
0.260299  0.000000  0.000000  0.000000  -22.309914  9.910991  0.461227  47.577157  -7.626354  -5.617215  -16.480263  22.934317  6.688051  22.497183  118.707373
0.260604  0.000000  0.000000  0.000000  -34.818317  0.853215  6.461227  47.483284  5.276840  -3.827816  -7.793737  26.186469  13.749034  25.621307  121.575935
0.260909  0.000000  0.000000  0.000000  -23.158099  10.676352  6.461227  52.159145  -14.437669  -6.297778  1.617443  22.268230  10.787094  32.240852  122.986855
